<svg xmlns="http://www.w3.org/2000/svg" width="32" height="32" viewBox="0 0 32 32" role="img">
<title>TrialFind favicon</title>
<rect x="0" y="0" width="32" height="32" rx="6" fill="#085041"/>
<circle cx="14" cy="14" r="11" fill="none" stroke="#9FE1CB" stroke-width="1.5"/>
<line x1="22" y1="22" x2="29" y2="29" stroke="#9FE1CB" stroke-width="3" stroke-linecap="round"/>
<path d="M11 4 L11 9 L7 15 Q5 18 5 20 Q5 24 9 25 Q11 26 14 26 Q17 26 19 25 Q23 24 23 20 Q23 18 21 15 L17 9 L17 4 Z" fill="#E1F5EE" opacity="0.9" stroke="#9FE1CB" stroke-width="1.2" stroke-linejoin="round"/>
<rect x="10" y="2" width="8" height="3" rx="1" fill="#9FE1CB"/>
<path d="M5 18 L5 20 Q5 24 9 25 Q11 26 14 26 Q17 26 19 25 Q23 24 23 20 L23 18 Z" fill="#1D9E75"/>
</svg>
