<svg xmlns="http://www.w3.org/2000/svg" width="200" height="200" viewBox="0 0 200 200" role="img">
<title>TrialFind standalone mark</title>
<circle cx="96" cy="96" r="78" fill="none" stroke="#085041" stroke-width="4"/>
<line x1="154" y1="152" x2="188" y2="188" stroke="#085041" stroke-width="8" stroke-linecap="round"/>
<path d="M82 22 L82 64 L46 120 Q36 136 36 148 Q36 170 58 178 Q68 182 96 182 Q124 182 134 178 Q156 170 156 148 Q156 136 146 120 L110 64 L110 22 Z" fill="#E1F5EE" stroke="#085041" stroke-width="3" stroke-linejoin="round"/>
<rect x="75" y="10" width="42" height="15" rx="4" fill="#085041"/>
<path d="M36 140 L36 148 Q36 170 58 178 Q68 182 96 182 Q124 182 134 178 Q156 170 156 148 L156 140 Z" fill="#1D9E75" opacity="0.8"/>
<circle cx="56" cy="156" r="6" fill="white" opacity="0.5"/>
<circle cx="70" cy="170" r="4" fill="white" opacity="0.4"/>
<circle cx="120" cy="158" r="5" fill="white" opacity="0.4"/>
<line x1="82" y1="64" x2="110" y2="64" stroke="#085041" stroke-width="1.5" opacity="0.35"/>
</svg>
